<?xml version="1.0" encoding="UTF-8"?>
<!DOCTYPE svg PUBLIC "-//W3C//DTD SVG 1.1//EN" "http://www.w3.org/Graphics/SVG/1.1/DTD/svg11.dtd">
<!-- Creator: CorelDRAW 2017 -->
<svg xmlns="http://www.w3.org/2000/svg" xml:space="preserve" width="249px" height="250px" version="1.1" style="shape-rendering:geometricPrecision; text-rendering:geometricPrecision; image-rendering:optimizeQuality; fill-rule:evenodd; clip-rule:evenodd"
viewBox="0 0 249 250"
 xmlns:xlink="http://www.w3.org/1999/xlink">
 <defs>
  <style type="text/css">
   <![CDATA[
    .fil2 {fill:none}
    .fil0 {fill:#1B0050}
    .fil1 {fill:#1B0050;fill-rule:nonzero}
   ]]>
  </style>
   <clipPath id="id0">
    <path d="M0 0l249 0 0 250 -249 0 0 -250z"/>
   </clipPath>
 </defs>
 <g id="Layer_x0020_1">
  <metadata id="CorelCorpID_0Corel-Layer"/>
  <g>
  </g>
  <g style="clip-path:url(#id0)">
   <g>
    <g id="_2620588004240">
     <path class="fil0" d="M216.22 42.77l-32.29 0 0 -7.42c0,-3.45 -2.8,-6.25 -6.25,-6.25 -3.46,0 -6.26,2.8 -6.26,6.25l0 7.42 -15.64 0 0 -7.42c0,-3.45 -2.8,-6.25 -6.26,-6.25 -3.45,0 -6.25,2.8 -6.25,6.25l0 7.42 -15.64 0 0 -7.42c0,-3.45 -2.81,-6.25 -6.26,-6.25 -3.45,0 -6.26,2.8 -6.26,6.25l0 7.42 -15.64 0 0 -7.42c0,-3.45 -2.8,-6.25 -6.25,-6.25 -3.46,0 -6.26,2.8 -6.26,6.25l0 7.42 -15.64 0 0 -7.42c0,-3.45 -2.8,-6.25 -6.26,-6.25 -3.45,0 -6.25,2.8 -6.25,6.25l0 7.42 -17.77 0c-6.91,0 -16.64,8.32 -16.64,15.22l0 153.12c0,6.91 9.73,9.79 16.64,9.79l175.18 0c6.91,0 8.38,-2.88 8.38,-9.79l0 -153.12c0,-6.9 -1.47,-15.22 -8.38,-15.22zm-157.41 12.5l0 8.21c0,3.45 2.8,6.25 6.25,6.25 3.46,0 6.26,-2.8 6.26,-6.25l0 -8.21 15.64 0 0 8.21c0,3.45 2.8,6.25 6.26,6.25 3.45,0 6.25,-2.8 6.25,-6.25l0 -8.21 15.64 0 0 8.21c0,3.45 2.81,6.25 6.26,6.25 3.45,0 6.26,-2.8 6.26,-6.25l0 -8.21 15.64 0 0 8.21c0,3.45 2.8,6.25 6.26,6.25 3.45,0 6.25,-2.8 6.25,-6.25l0 -8.21 15.64 0 0 8.21c0,3.45 2.8,6.25 6.26,6.25 3.45,0 6.25,-2.8 6.25,-6.25l0 -8.21 28.16 0 0 31.25 -175.18 0 0 -31.25 21.9 0zm-21.9 153.13l0 -115.63 175.18 0 0 115.63 -175.18 0z"/>
     <path class="fil0" d="M199.58 169.73c-1.74,0 -3.13,1.4 -3.13,3.12l0 23.05 -16.16 0c-1.73,0 -3.13,1.4 -3.13,3.12 0,1.73 1.4,3.13 3.13,3.13l21.89 0c1.73,0 0.52,0.56 0.52,-1.17l0 -28.13c0,-1.72 -1.4,-3.12 -3.12,-3.12z"/>
     <path class="fil0" d="M167.77 195.9l-6.25 0c-1.73,0 -3.13,1.4 -3.13,3.12 0,1.73 1.4,3.13 3.13,3.13l6.25 0c1.73,0 3.13,-1.4 3.13,-3.13 0,-1.72 -1.4,-3.12 -3.13,-3.12z"/>
     <path class="fil1" d="M104.39 161.39l-5.99 0 0 -38.05c-1.43,1.38 -3.33,2.75 -5.66,4.12 -2.33,1.37 -4.44,2.4 -6.3,3.08l0 -5.77c3.34,-1.56 6.27,-3.46 8.77,-5.7 2.5,-2.23 4.28,-4.39 5.32,-6.5l3.86 0 0 48.82z"/>
     <path id="1" class="fil1" d="M151.09 155.68l0 5.71 -32.22 0c-0.04,-1.44 0.2,-2.82 0.7,-4.16 0.83,-2.18 2.16,-4.34 3.98,-6.46 1.82,-2.11 4.43,-4.56 7.82,-7.33 5.26,-4.33 8.84,-7.76 10.71,-10.3 1.88,-2.53 2.82,-4.93 2.82,-7.19 0,-2.37 -0.85,-4.36 -2.55,-5.99 -1.7,-1.62 -3.92,-2.43 -6.64,-2.43 -2.89,0 -5.21,0.86 -6.94,2.58 -1.73,1.71 -2.6,4.08 -2.62,7.13l-6.12 -0.62c0.42,-4.57 2,-8.05 4.74,-10.45 2.76,-2.4 6.44,-3.6 11.07,-3.6 4.67,0 8.37,1.29 11.09,3.88 2.73,2.59 4.09,5.81 4.09,9.63 0,1.95 -0.4,3.86 -1.2,5.74 -0.8,1.89 -2.12,3.87 -3.97,5.95 -1.85,2.07 -4.92,4.93 -9.21,8.55 -3.59,3.02 -5.9,5.05 -6.92,6.13 -1.02,1.07 -1.85,2.15 -2.52,3.23l23.89 0z"/>
    </g>
   </g>
  </g>
  <polygon class="fil2" points="0,0 249,0 249,250 0,250 "/>
 </g>
</svg>
