<?xml version="1.0" encoding="UTF-8"?>
<!DOCTYPE svg PUBLIC "-//W3C//DTD SVG 1.1//EN" "http://www.w3.org/Graphics/SVG/1.1/DTD/svg11.dtd">
<!-- Creator: CorelDRAW 2017 -->
<svg xmlns="http://www.w3.org/2000/svg" xml:space="preserve" width="249px" height="250px" version="1.1" style="shape-rendering:geometricPrecision; text-rendering:geometricPrecision; image-rendering:optimizeQuality; fill-rule:evenodd; clip-rule:evenodd"
viewBox="0 0 249 250"
 xmlns:xlink="http://www.w3.org/1999/xlink"
 enable-background="new 0 0 70 70">
 <defs>
  <style type="text/css">
   <![CDATA[
    .fil1 {fill:none}
    .fil0 {fill:#1B0050}
   ]]>
  </style>
   <clipPath id="id0">
    <path d="M0.12 0l248.76 0 0 250 -248.76 0 0 -250z"/>
   </clipPath>
 </defs>
 <g id="Layer_x0020_1">
  <metadata id="CorelCorpID_0Corel-Layer"/>
  <g>
  </g>
  <g style="clip-path:url(#id0)">
   <g>
    <g id="_2620460069568">
     <path class="fil0" d="M116.39 53.8c-39.43,0 -71.51,32.08 -71.51,71.51 0,39.42 32.08,71.5 71.51,71.5 39.42,0 71.5,-32.08 71.5,-71.5 0,-39.43 -32.07,-71.51 -71.5,-71.51zm0 130.51c-32.59,0 -59.01,-26.41 -59.01,-59 0,-32.59 26.42,-59.01 59.01,-59.01 32.59,0 59,26.42 59,59.01 0,32.59 -26.41,59 -59,59z"/>
     <path class="fil0" d="M135.58 78.18c-1.6,-0.67 -3.43,0.11 -4.07,1.71 -0.66,1.6 0.11,3.42 1.71,4.08 16.89,6.88 27.8,23.11 27.8,41.34 0,1.72 1.39,3.12 3.12,3.12 1.72,0 3.13,-1.39 3.13,-3.12 0,-20.79 -12.44,-39.29 -31.69,-47.13z"/>
     <path class="fil0" d="M116.39 80.68c2.37,0 4.76,0.19 7.09,0.56 0.18,0.03 0.34,0.04 0.5,0.04 1.51,0 2.84,-1.09 3.09,-2.63 0.27,-1.7 -0.89,-3.31 -2.59,-3.58 -2.67,-0.43 -5.39,-0.64 -8.1,-0.64 -1.72,0 -3.12,1.39 -3.12,3.12 0,1.73 1.4,3.13 3.13,3.13z"/>
     <path class="fil0" d="M127.12 131.63c1.11,-1.87 1.78,-4.01 1.78,-6.32 0,-6.9 -5.61,-12.51 -12.51,-12.51 -6.9,0 -12.52,5.61 -12.52,12.51 0,2.17 0.61,4.19 1.59,5.98l-22.1 22.1c-1.22,1.22 -1.22,3.2 0,4.42 0.61,0.61 1.41,0.91 2.21,0.91 0.8,0 1.6,-0.3 2.21,-0.91l21.95 -21.95c1.93,1.23 4.2,1.96 6.66,1.96 2.31,0 4.45,-0.67 6.31,-1.77l7.28 7.27c0.61,0.61 1.41,0.92 2.21,0.92 0.8,0 1.6,-0.31 2.21,-0.92 1.22,-1.22 1.22,-3.19 0,-4.42l-7.28 -7.27zm-10.73 -0.06c-1.73,0 -3.3,-0.7 -4.43,-1.83 -0.08,-0.1 -0.12,-0.22 -0.21,-0.32 -0.04,-0.03 -0.08,-0.04 -0.12,-0.08 -0.92,-1.09 -1.51,-2.49 -1.51,-4.03 0,-3.46 2.81,-6.26 6.27,-6.26 3.46,0 6.26,2.8 6.26,6.26 0,3.46 -2.8,6.26 -6.26,6.26z"/>
     <path class="fil0" d="M197.87 108.86c-3.45,0 -6.25,2.8 -6.25,6.25l0 18.75c0,3.45 2.8,6.25 6.25,6.25 3.45,0 6.25,-2.8 6.25,-6.25l0 -18.75c0,-3.45 -2.8,-6.25 -6.25,-6.25z"/>
     <path class="fil0" d="M81.66 57.52c3.24,1.18 6.83,-1.47 8.01,-4.72l5.08 -15.3 43.86 0 5.11 15.78c0.9,2.57 3.32,5.15 5.89,5.15 0.69,0 1.39,-0.11 2.08,-0.36 3.26,-1.15 4.96,-4.8 3.81,-8.05l-6.57 -19.59c-0.88,-2.5 -3.24,-5.43 -5.89,-5.43l-52.66 0c-2.63,0 -4.98,2.86 -5.88,5.33l-6.57 19.01c-1.19,3.25 0.48,7 3.73,8.18z"/>
     <path class="fil0" d="M151.58 195.42c-3.26,-1.09 -6.81,-0.31 -7.91,2.97l-5.15 14.11 -43.66 0 -5.15 -13.96c-1.11,-3.27 -4.65,-4.13 -7.92,-3.03 -3.27,1.11 -5.03,4.66 -3.92,7.93l6.58 18.54c0.86,2.54 3.24,3.02 5.92,3.02l52.65 0c2.69,0 5.08,-0.49 5.93,-3.05l6.58 -18.78c1.1,-3.27 -0.67,-6.66 -3.95,-7.75z"/>
    </g>
   </g>
  </g>
  <polygon class="fil1" points="0.12,0 248.88,0 248.88,250 0.12,250 "/>
 </g>
</svg>
