<?xml version="1.0" encoding="UTF-8"?>
<!DOCTYPE svg PUBLIC "-//W3C//DTD SVG 1.1//EN" "http://www.w3.org/Graphics/SVG/1.1/DTD/svg11.dtd">
<!-- Creator: CorelDRAW 2017 -->
<svg xmlns="http://www.w3.org/2000/svg" xml:space="preserve" width="249px" height="250px" version="1.1" style="shape-rendering:geometricPrecision; text-rendering:geometricPrecision; image-rendering:optimizeQuality; fill-rule:evenodd; clip-rule:evenodd"
viewBox="0 0 249 250"
 xmlns:xlink="http://www.w3.org/1999/xlink"
 enable-background="new 0 0 70 70">
 <defs>
  <style type="text/css">
   <![CDATA[
    .fil1 {fill:none}
    .fil0 {fill:#1B0050}
   ]]>
  </style>
   <clipPath id="id0">
    <path d="M0.12 0l248.76 0 0 250 -248.76 0 0 -250z"/>
   </clipPath>
 </defs>
 <g id="Layer_x0020_1">
  <metadata id="CorelCorpID_0Corel-Layer"/>
  <g id="_2620528338400">
  </g>
  <g id="_2620528338496">
  </g>
  <g id="_2620528337952">
  </g>
  <g id="_2620528337664">
  </g>
  <g id="_2620528338112">
  </g>
  <g id="_2620528336416">
  </g>
  <g id="_2620528335616">
  </g>
  <g id="_2620528336832">
  </g>
  <g id="_2620528336640">
  </g>
  <g id="_2620528333536">
  </g>
  <g id="_2620528333216">
  </g>
  <g id="_2620528334080">
  </g>
  <g id="_2620528333664">
  </g>
  <g id="_2620528333696">
  </g>
  <g id="_2620528332160">
  </g>
  <g>
  </g>
  <g style="clip-path:url(#id0)">
   <g>
    <g id="_2620528332032">
     <g>
      <path class="fil0" d="M124.5 13.98c-41.55,0 -75.36,33.81 -75.36,75.36 0,16.69 9.83,42.09 30.94,79.91 14.4,25.81 28.74,47.61 29.35,48.53l10.36 15.7c1.04,1.59 2.81,2.54 4.71,2.54 1.9,0 3.67,-0.95 4.71,-2.54l10.36 -15.7c0.6,-0.91 14.84,-22.52 29.35,-48.53 21.11,-37.82 30.94,-63.21 30.94,-79.91 0,-41.55 -33.81,-75.36 -75.36,-75.36zm34.56 149.77c-14.31,25.64 -28.32,46.91 -28.91,47.81l-5.65 8.56 -5.65 -8.56c-0.59,-0.9 -14.71,-22.36 -28.91,-47.81 -19.58,-35.09 -29.5,-60.12 -29.5,-74.41 0,-35.33 28.74,-64.07 64.06,-64.07 35.32,0 64.06,28.74 64.06,64.07 0,14.29 -9.92,39.32 -29.5,74.41z"/>
      <path class="fil0" d="M124.5 47.09c-23.04,0 -41.78,18.74 -41.78,41.78 0,23.03 18.74,41.78 41.78,41.78 23.04,0 41.78,-18.75 41.78,-41.78 0,-23.04 -18.74,-41.78 -41.78,-41.78zm0 72.26c-16.81,0 -30.49,-13.67 -30.49,-30.48 0,-16.82 13.68,-30.49 30.49,-30.49 16.81,0 30.49,13.67 30.49,30.49 0,16.81 -13.68,30.48 -30.49,30.48z"/>
     </g>
    </g>
   </g>
  </g>
  <polygon class="fil1" points="0.12,0 248.88,0 248.88,250 0.12,250 "/>
 </g>
</svg>
